<svg xmlns="http://www.w3.org/2000/svg" viewBox="0 0 280 560" width="280" height="560" fill="none">
  <!-- left border rail -->
  <path d="M10 40 L26 68 H-4 Z" stroke="white" stroke-width="1.35"/>
  <g transform="translate(2 160)" stroke="white" stroke-width="1.25" stroke-linecap="round" stroke-linejoin="round">
    <path d="M4 10 H20 V24 C20 27.5 17.5 29.5 12 29.5 C6.5 29.5 4 27.5 4 24 Z"/>
    <path d="M20 13 H24 C26 13 27.2 14.3 27.2 16.3 C27.2 18.3 26 19.6 24 19.6 H20"/>
    <path d="M8 4 C8 2.3 9.1 2.3 9.1 4 M13.5 4 C13.5 2.3 14.6 2.3 14.6 4"/>
  </g>
  <path d="M6 300 L22 316 M22 300 L6 316" stroke="white" stroke-width="1.4" stroke-linecap="round"/>
  <circle cx="14" cy="420" r="9" stroke="white" stroke-width="1.3"/>
  <path d="M14 510 L17 518 L26 518 L19 523 L21 532 L14 527 L7 532 L9 523 L2 518 L11 518 Z" stroke="white" stroke-width="1.15" stroke-linejoin="round"/>

  <!-- right border rail -->
  <rect x="252" y="32" width="18" height="18" rx="1.5" stroke="white" stroke-width="1.35" transform="rotate(12 261 41)"/>
  <g transform="translate(236 145)" stroke="white" stroke-width="1.3" stroke-linecap="round">
    <path d="M8 15 A14 14 0 0 1 36 15"/>
    <rect x="4" y="13" width="8" height="12" rx="3"/>
    <rect x="32" y="13" width="8" height="12" rx="3"/>
  </g>
  <circle cx="266" cy="270" r="10" stroke="white" stroke-width="1.3"/>
  <path d="M258 360 L276 390 H240 Z" stroke="white" stroke-width="1.25"/>
  <path d="M254 470 L270 486 M270 470 L254 486" stroke="white" stroke-width="1.35" stroke-linecap="round"/>
</svg>
